<?xml version="1.0" encoding="UTF-8"?>
<svg version="1.1" xmlns="http://www.w3.org/2000/svg" width="716" height="717">
<path d="M0 0 C0.93328125 0.73863281 1.8665625 1.47726563 2.828125 2.23828125 C9.26508802 7.41543865 15.37420703 12.90481569 21.41455078 18.53222656 C23.06680046 20.06184237 24.73279377 21.57523422 26.40234375 23.0859375 C31.63379005 27.83325309 36.73860288 32.53396708 41.27734375 37.96484375 C43.35968587 40.424935 45.55491676 42.76502788 47.75 45.125 C53.52936102 51.47968203 58.82453246 58.14770827 64 65 C64.5146582 65.67949707 65.02931641 66.35899414 65.55957031 67.05908203 C74.2201237 78.56870974 81.84613576 90.50486627 89 103 C89.74032471 104.27520508 89.74032471 104.27520508 90.49560547 105.57617188 C134.62658023 181.91859356 146.4287635 274.26274835 128 360 C127.78504883 361.00160156 127.57009766 362.00320313 127.34863281 363.03515625 C114.18914164 422.75446146 84.28334979 478.10339613 43 523 C41.56238617 524.6248993 40.12488903 526.24990184 38.6875 527.875 C30.9721898 536.44007339 22.81301748 544.56501798 14 552 C13.10539063 552.78375 12.21078125 553.5675 11.2890625 554.375 C-52.77476761 610.18189864 -137.26483071 640.31315645 -221.9375 640.1875 C-222.69868134 640.18689575 -223.45986267 640.1862915 -224.24411011 640.18566895 C-310.03507126 640.0021469 -394.9740051 608.32023062 -459 551 C-460.43279297 549.73349609 -460.43279297 549.73349609 -461.89453125 548.44140625 C-473.93644279 537.61851174 -486.03491417 526.33268281 -496.01171875 513.546875 C-498.19719453 510.74740504 -500.49979886 508.07011628 -502.8125 505.375 C-554.25532575 443.59590324 -580.58289952 362.29750002 -580.3125 282.5 C-580.31034485 281.35359039 -580.3081897 280.20718079 -580.30596924 279.02603149 C-580.25418006 261.84325087 -579.8354077 244.98442332 -577 228 C-576.80132324 226.7826416 -576.60264648 225.5652832 -576.39794922 224.31103516 C-568.36846819 176.45292236 -551.68633774 129.72163422 -525 89 C-524.4730957 88.19433594 -523.94619141 87.38867188 -523.40332031 86.55859375 C-516.4284263 75.97827974 -509.05193172 65.78510929 -501 56 C-500.55446777 55.45682129 -500.10893555 54.91364258 -499.64990234 54.35400391 C-440.34321601 -17.62924654 -354.18931391 -65.61499425 -261 -75 C-167.13099983 -83.37913532 -74.24250417 -58.95162572 0 0 Z " fill="#23A7D8" transform="translate(580,77)"/>
<path d="M0 0 C9.51176952 -0.23498464 18.9234092 0.58987539 28.38671875 1.47265625 C29.68464355 1.5902832 30.98256836 1.70791016 32.31982422 1.82910156 C62.60367053 4.82795781 92.00579254 14.86837949 118.76171875 29.16015625 C119.42655273 29.51190918 120.09138672 29.86366211 120.77636719 30.22607422 C134.91139052 37.75370153 147.58687294 46.7538278 159.76171875 57.16015625 C160.90253906 58.13275391 160.90253906 58.13275391 162.06640625 59.125 C175.16530085 70.61409779 187.64696011 82.93791693 197.76171875 97.16015625 C198.2932959 97.90152832 198.82487305 98.64290039 199.37255859 99.40673828 C212.24074364 117.53368006 223.34488178 137.14983776 230.76171875 158.16015625 C231.18582031 159.31515625 231.60992188 160.47015625 232.046875 161.66015625 C249.10296202 210.06397508 250.08603731 264.45186203 233.76171875 313.16015625 C233.5287207 313.88477051 233.29572266 314.60938477 233.05566406 315.35595703 C218.89184151 359.37567918 190.7541453 401.06208362 153.76171875 429.16015625 C153.20548828 429.58748047 152.64925781 430.01480469 152.07617188 430.45507812 C143.02043197 437.38699629 133.70950405 443.58701323 123.76171875 449.16015625 C122.99649902 449.59328125 122.2312793 450.02640625 121.44287109 450.47265625 C103.60578421 460.48047388 84.65436688 468.28242803 64.76171875 473.16015625 C63.96088867 473.36092773 63.16005859 473.56169922 62.33496094 473.76855469 C59.56432265 474.45742094 56.78920417 475.12446664 54.01171875 475.78515625 C53.16722168 475.99172852 52.32272461 476.19830078 51.45263672 476.41113281 C36.15620031 479.9272264 20.64722206 480.5408373 5.01171875 480.47265625 C3.7002739 480.46992203 3.7002739 480.46992203 2.36233521 480.46713257 C-11.05037459 480.42018311 -24.05622568 479.80977736 -37.23828125 477.16015625 C-38.18396973 476.97791504 -39.1296582 476.79567383 -40.10400391 476.60791016 C-56.7216724 473.36774903 -72.79038736 469.19884613 -88.23828125 462.16015625 C-89.05184082 461.79148437 -89.86540039 461.4228125 -90.70361328 461.04296875 C-126.50331241 444.71216922 -159.00951926 421.51767875 -183.23828125 390.16015625 C-184.02332031 389.19207031 -184.80835938 388.22398437 -185.6171875 387.2265625 C-208.78528058 358.40793766 -224.45329679 322.40589817 -231.23828125 286.16015625 C-231.42165039 285.22719727 -231.60501953 284.29423828 -231.79394531 283.33300781 C-243.42928938 222.67565573 -229.58209822 158.33811796 -195.23828125 107.16015625 C-194.83641602 106.56009766 -194.43455078 105.96003906 -194.02050781 105.34179688 C-179.70918168 84.19194021 -161.57532896 64.31426961 -140.86083984 49.33837891 C-139.22428387 48.14999204 -137.61566837 46.92998156 -136.0078125 45.703125 C-101.24845023 19.57831951 -59.28297113 5.00474958 -16.23828125 1.16015625 C-14.95566406 1.02996094 -13.67304688 0.89976563 -12.3515625 0.765625 C-8.23705467 0.38605786 -4.12600038 0.20406033 0 0 Z " fill="#FCFEFE" transform="translate(353.23828125,112.83984375)"/>
<path d="M0 0 C8.75971172 0.4202892 17.49488403 0.93285446 26.22875977 1.73510742 C38.55966681 2.8629026 50.8509936 3.37779928 63.22509766 3.65820312 C64.52366699 3.68978516 65.82223633 3.72136719 67.16015625 3.75390625 C68.88697632 3.78979858 68.88697632 3.78979858 70.64868164 3.82641602 C74.11657748 4.00603822 77.56235628 4.50890804 81 5 C81 37.34 81 69.68 81 103 C47.67 103 14.34 103 -20 103 C-20 87.77920854 -20 87.77920854 -19.25 81.1875 C-19.16274658 80.40109131 -19.07549316 79.61468262 -18.9855957 78.80444336 C-15.78257316 51.41793606 -8.99039969 26.01602422 0 0 Z " fill="#23A7D8" transform="translate(264,243)"/>
<path d="M0 0 C9.7991209 25.47771435 15.80638987 51.92312129 19 79 C19.1045752 79.81887695 19.20915039 80.63775391 19.31689453 81.48144531 C20.16942687 88.77319151 20 95.49988797 20 103 C-13.33 103 -46.66 103 -81 103 C-81 70.66 -81 38.32 -81 5 C-76.29678448 4.32811207 -72.18855268 3.8645903 -67.51171875 3.7890625 C-65.64 3.74930298 -65.64 3.74930298 -63.73046875 3.70874023 C-63.07224121 3.69543671 -62.41401367 3.68213318 -61.73583984 3.66842651 C-47.48184889 3.36623001 -33.35839153 2.40299876 -19.1706543 1.01611328 C-12.75949066 0.39290725 -6.44635784 -0.19106473 0 0 Z " fill="#23A7D8" transform="translate(452,243)"/>
<path d="M0 0 C33.66 0 67.32 0 102 0 C102 10.15021459 102 10.15021459 101.51953125 13.8125 C101.4102832 14.6470874 101.30103516 15.4816748 101.18847656 16.34155273 C101.0644043 17.21884033 100.94033203 18.09612793 100.8125 19 C100.6794043 19.94496338 100.54630859 20.88992676 100.40917969 21.86352539 C96.70529208 47.18378167 91.06790375 71.8213201 80 95 C72.07445693 95.20714488 64.27142564 94.48049407 56.38830566 93.77484131 C41.24080951 92.42809612 26.14972804 91.58010343 10.9453125 91.29125977 C9.64851563 91.26475342 8.35171875 91.23824707 7.015625 91.2109375 C5.87383789 91.19337402 4.73205078 91.17581055 3.55566406 91.15771484 C1 91 1 91 0 90 C-0.0951949 87.20006693 -0.12552637 84.42497184 -0.11352539 81.62475586 C-0.11364593 80.73253861 -0.11376646 79.84032137 -0.11389065 78.92106724 C-0.11314135 76.01896781 -0.10551237 73.11693177 -0.09765625 70.21484375 C-0.09618688 68.42875194 -0.09516614 66.64265971 -0.09460449 64.85656738 C-0.08935101 58.21687171 -0.07538993 51.57718524 -0.0625 44.9375 C-0.041875 30.108125 -0.02125 15.27875 0 0 Z " fill="#25A7D8" transform="translate(370,371)"/>
<path d="M0 0 C33.66 0 67.32 0 102 0 C102.020625 14.829375 102.04125 29.65875 102.0625 44.9375 C102.071604 49.62702881 102.08070801 54.31655762 102.09008789 59.14819336 C102.09460449 64.85656738 102.09460449 64.85656738 102.09544373 67.52540588 C102.09698346 69.39703102 102.10050898 71.26865514 102.10557556 73.14027405 C102.11285159 75.9684523 102.11390747 78.79656971 102.11352539 81.62475586 C102.1171235 82.46431037 102.12072161 83.30386488 102.12442875 84.16886044 C102.11402634 89.88597366 102.11402634 89.88597366 101 91 C98.90382306 91.13563722 96.80326309 91.20396047 94.703125 91.24609375 C93.35147641 91.2777946 91.99983272 91.30970509 90.64819336 91.34179688 C89.93114227 91.35718506 89.21409119 91.37257324 88.47531128 91.38842773 C76.2746829 91.65747435 64.11156757 92.14136962 51.9375 93 C50.75124023 93.08306396 49.56498047 93.16612793 48.34277344 93.25170898 C43.71457912 93.59189933 39.10561239 93.95293669 34.50390625 94.55859375 C31.61327555 94.92274232 28.90553703 95.10789902 26 95.0625 C24.8553125 95.04896484 24.8553125 95.04896484 23.6875 95.03515625 C23.130625 95.02355469 22.57375 95.01195312 22 95 C7.92266782 66.27344403 0 31.99449088 0 0 Z " fill="#25A7D8" transform="translate(244,371)"/>
<path d="M0 0 C2.00376421 2.38142071 3.53307147 4.54604115 5.125 7.1875 C5.59728027 7.94925537 6.06956055 8.71101074 6.55615234 9.49584961 C27.25678877 43.43159999 37.7979516 78.36312887 40 118 C14.92 118 -10.16 118 -36 118 C-36.66 109.09 -37.32 100.18 -38 91 C-41.39218525 66.20195609 -45.56918972 41.07021201 -54.6796875 17.62109375 C-56 14 -56 14 -56 11 C-55.15912842 10.86537354 -55.15912842 10.86537354 -54.30126953 10.72802734 C-42.34071443 8.78893472 -30.49367725 6.54664895 -18.6875 3.8125 C-16.98907959 3.41973877 -16.98907959 3.41973877 -15.25634766 3.01904297 C-1.35029044 -0.25635949 -1.35029044 -0.25635949 0 0 Z " fill="#24A7D8" transform="translate(533,228)"/>
<path d="M0 0 C5.10433449 0.66312224 10.08463727 1.62253723 15.1015625 2.77734375 C16.66013707 3.12964217 18.21873147 3.48185286 19.77734375 3.83398438 C22.19290907 4.38310956 24.60814005 4.93364291 27.02294922 5.48608398 C36.65015327 7.68396301 46.20484846 9.6866532 56 11 C54.94783781 16.45211315 53.50926446 21.56490174 51.6875 26.8125 C41.56424894 56.34303943 38.29503484 87.01702966 36 118 C10.92 118 -14.16 118 -40 118 C-39.3295188 105.93133836 -38.4731625 94.6901804 -36 83 C-35.82984375 82.18128418 -35.6596875 81.36256836 -35.484375 80.51904297 C-29.26244118 51.10373978 -17.10237511 24.6925018 0 0 Z " fill="#24A7D8" transform="translate(183,228)"/>
<path d="M0 0 C24.75 0 49.5 0 75 0 C76.32 11.55 77.64 23.1 79 35 C82.77552659 54.89804555 87.90775599 74.5498573 95.15234375 93.48828125 C96 96 96 96 96 99 C94.67947632 99.24121582 94.67947632 99.24121582 93.33227539 99.48730469 C71.65942082 103.401504 71.65942082 103.401504 50.1796875 108.23828125 C47.13075849 108.96867579 44.09790112 109.5244863 41 110 C29.29387681 95.29848646 20.59986215 78.50879155 13.80664062 61.05419922 C13.09205196 59.23442045 12.3379166 57.4302803 11.578125 55.62890625 C6.31304995 42.87247441 3.37267364 29.27730081 1.1875 15.6875 C1.06358887 14.91776855 0.93967773 14.14803711 0.81201172 13.35498047 C0.12426278 8.75344372 0 4.76879082 0 0 Z " fill="#24A7D8" transform="translate(144,371)"/>
<path d="M0 0 C24.75 0 49.5 0 75 0 C74.38165839 8.03844089 73.76631558 15.69262929 72.3125 23.5625 C72.05521118 24.96024658 72.05521118 24.96024658 71.79272461 26.38623047 C66.03414987 56.20391393 52.67989085 85.97572621 34 110 C29.62966312 109.30983727 25.32897303 108.44328919 21.01171875 107.4765625 C19.65889618 107.17567365 18.30602999 106.87498092 16.953125 106.57446289 C15.90608398 106.34123825 15.90608398 106.34123825 14.83789062 106.103302 C2.9369624 103.45623047 -8.95310819 100.90500548 -21 99 C-20.39162672 95.07677231 -19.15924444 91.5730489 -17.77856445 87.87475586 C-7.20477242 59.35323035 -3.17031943 30.11803455 0 0 Z " fill="#24A7D8" transform="translate(497,371)"/>
<path d="M0 0 C0 27.72 0 55.44 0 84 C-19.60825383 84 -19.60825383 84 -26.15625 83.6328125 C-26.9131311 83.59316376 -27.67001221 83.55351501 -28.4498291 83.51266479 C-30.01892071 83.42915985 -31.5878951 83.34342009 -33.15673828 83.25537109 C-35.49869207 83.12507277 -37.84102998 83.00548424 -40.18359375 82.88671875 C-50.51664882 82.33720869 -60.73907783 81.33078478 -71 80 C-70.41431565 76.51010528 -69.51756929 73.64244754 -67.953125 70.47265625 C-67.31431396 69.17775269 -67.31431396 69.17775269 -66.66259766 67.85668945 C-66.19644043 66.93460693 -65.7302832 66.01252441 -65.25 65.0625 C-64.76192871 64.09465576 -64.27385742 63.12681152 -63.77099609 62.12963867 C-55.18052983 45.3302934 -45.36094493 29.31423935 -34.37939453 13.97509766 C-33.17170375 12.24585546 -32.04523626 10.46046603 -30.93359375 8.66796875 C-28.17217663 4.49900424 -26.40885444 2.42043516 -21.53125 0.96484375 C-14.30152681 -0.12684445 -7.33870661 0 0 0 Z " fill="#26A8D8" transform="translate(346,139)"/>
<path d="M0 0 C22.55868545 0 22.55868545 0 28.86328125 5.49609375 C31.03658848 8.27251974 32.96289515 11.02942326 34.79492188 14.03320312 C36.05831536 16.09517595 37.38650878 18.10171413 38.734375 20.109375 C41.56817478 24.35811221 44.2912063 28.67087765 47 33 C47.37447266 33.58910156 47.74894531 34.17820313 48.13476562 34.78515625 C53.74756651 43.63019164 58.64801333 52.84802729 63.5 62.125 C63.81562897 62.72439392 64.13125793 63.32378784 64.45645142 63.94134521 C65.36346391 65.66813414 66.26003175 67.4003967 67.15625 69.1328125 C67.68025391 70.14230957 68.20425781 71.15180664 68.74414062 72.19189453 C69.92538501 74.83316064 70.56946923 77.15001678 71 80 C59.95864262 81.43200291 48.96272448 82.44162616 37.84326172 83.00537109 C35.50050876 83.12497403 33.15852131 83.25527102 30.81640625 83.38671875 C29.26305455 83.46938603 27.70966994 83.55143757 26.15625 83.6328125 C25.48799194 83.67028595 24.81973389 83.7077594 24.13122559 83.74636841 C16.07292679 84.14169684 8.09906796 84 0 84 C0 56.28 0 28.56 0 0 Z " fill="#26A8D8" transform="translate(370,139)"/>
<path d="M0 0 C37.99706376 0 37.99706376 0 52.5625 1.5 C54.09817371 1.64594369 55.63398309 1.79046665 57.16992188 1.93359375 C60.78163093 2.2730514 64.39122962 2.63044095 68 3 C67.0913442 7.10933581 65.25126336 10.49023947 63.1875 14.125 C62.79006592 14.82584717 62.39263184 15.52669434 61.9831543 16.2487793 C50.78862736 35.67969393 37.44450119 54.20350361 22.62109375 71.01953125 C19.90701158 73.90520795 19.90701158 73.90520795 18.09765625 77.32421875 C15 80 15 80 0 81 C0 54.27 0 27.54 0 0 Z " fill="#26A8D8" transform="translate(370,487)"/>
<path d="M0 0 C0 26.73 0 53.46 0 81 C-14 80 -14 80 -18.6875 75.8125 C-20.15740209 73.89946567 -21.59299475 71.95975731 -23 70 C-24.27244865 68.41739199 -25.54516553 66.83498159 -26.82495117 65.25830078 C-29.27098729 62.21401357 -31.63233187 59.10535998 -34 56 C-34.54317871 55.29198242 -35.08635742 54.58396484 -35.64599609 53.85449219 C-44.33252154 42.48583763 -52.17526437 30.75870286 -59.51171875 18.47607422 C-60.56181717 16.72901088 -61.62855778 14.99189832 -62.70703125 13.26220703 C-63.25746094 12.37259277 -63.80789063 11.48297852 -64.375 10.56640625 C-64.87773437 9.76275635 -65.38046875 8.95910645 -65.8984375 8.13110352 C-67 6 -67 6 -67 3 C-62.6031678 2.55238026 -58.20475237 2.12724885 -53.80419922 1.71826172 C-52.32483882 1.57813159 -50.84593428 1.43305075 -49.36767578 1.28173828 C-32.82206443 -0.40378138 -16.78345444 0 0 0 Z " fill="#24A7D8" transform="translate(345,487)"/>
<path d="M0 0 C1.6640625 1.36328125 1.6640625 1.36328125 2.625 3.3125 C3.20701172 4.41658203 3.20701172 4.41658203 3.80078125 5.54296875 C4.19652344 6.35378906 4.59226563 7.16460937 5 8 C5.93218284 9.71124054 6.87000704 11.41941622 7.8125 13.125 C8.31910156 14.06085938 8.82570313 14.99671875 9.34765625 15.9609375 C18.13449207 32.12206816 28.21890513 47.11291368 39 62 C37 63 37 63 34.76953125 62.390625 C7.68951824 51.94496609 -16.21857374 37.72572402 -37.66015625 18.11328125 C-39.77334514 16.20470832 -41.93107749 14.37679005 -44.125 12.5625 C-45.07375 11.716875 -46.0225 10.87125 -47 10 C-47 9.34 -47 8.68 -47 8 C-37.53024638 5.63884127 -28.03326863 3.53714501 -18.4375 1.75 C-17.06537354 1.48751465 -17.06537354 1.48751465 -15.66552734 1.21972656 C-10.3709833 0.25708219 -5.3789685 -0.48464566 0 0 Z " fill="#25A8D8" transform="translate(251,494)"/>
<path d="M0 0 C6.10845956 0.08023133 12.03594817 1.36654384 18.015625 2.51953125 C19.74232422 2.83954102 19.74232422 2.83954102 21.50390625 3.16601562 C28.99899589 4.58137923 36.388059 6.27180788 43.765625 8.20703125 C32.70777691 32.01259988 -8.08820086 50.46852439 -31.171875 59.83203125 C-32.04295898 60.1873291 -32.91404297 60.54262695 -33.81152344 60.90869141 C-34.62008789 61.22628418 -35.42865234 61.54387695 -36.26171875 61.87109375 C-37.34054321 62.29575928 -37.34054321 62.29575928 -38.44116211 62.72900391 C-40.234375 63.20703125 -40.234375 63.20703125 -42.234375 62.20703125 C-41.44675781 61.15128906 -40.65914063 60.09554687 -39.84765625 59.0078125 C-31.31637844 47.45212136 -23.61729635 35.52325314 -16.234375 23.20703125 C-15.84991211 22.56942871 -15.46544922 21.93182617 -15.06933594 21.27490234 C-11.49380406 15.33206335 -8.18966674 9.3195078 -5.1796875 3.0703125 C-3.64080164 0.037054 -3.6862373 0.2359548 0 0 Z " fill="#25A8D8" transform="translate(468.234375,493.79296875)"/>
<path d="M0 0 C0 3.31317926 -0.48435301 4.13506293 -2.203125 6.859375 C-2.68297852 7.63369873 -3.16283203 8.40802246 -3.65722656 9.20581055 C-4.1828418 10.04539307 -4.70845703 10.88497559 -5.25 11.75 C-15.34059185 28.21892078 -23.9851733 45.43810033 -32 63 C-39.30712016 63.33295991 -46.08978354 62.06811632 -53.25 60.6875 C-54.40113281 60.47416016 -55.55226562 60.26082031 -56.73828125 60.04101562 C-64.23337089 58.62565202 -71.622434 56.93522337 -79 55 C-66.7944856 29.29165341 -25.18816527 10.24603333 0 0 Z " fill="#25A8D8" transform="translate(281,152)"/>
<path d="M0 0 C29.48556178 11.81458706 53.90567428 28.25997116 77 50 C77.6084375 50.55945313 78.216875 51.11890625 78.84375 51.6953125 C80 53 80 53 80 55 C58.03828545 59.90593783 58.03828545 59.90593783 47.5 61.8125 C45.56640625 62.16248047 45.56640625 62.16248047 43.59375 62.51953125 C40.01280415 62.99828814 36.60753105 63.03307441 33 63 C32.63350342 62.22624023 32.26700684 61.45248047 31.8894043 60.65527344 C18.41469863 32.08900392 18.41469863 32.08900392 2.2421875 4.99609375 C1 3 1 3 0 0 Z " fill="#25A7D8" transform="translate(434,152)"/>
</svg>
